<svg width="120" height="120" viewBox="0 0 120 120" fill="none" xmlns="http://www.w3.org/2000/svg">
    <path d="M76.5552 91.1397L74.2165 82.9357H73.3124C71.4453 85.919 68.7923 88.235 65.3729 89.8837C61.9531 91.4735 58.0421 92.2781 53.6597 92.2781C46.1719 92.2781 40.5119 90.2763 36.7189 86.2529C32.9063 82.2095 31 76.4003 31 68.8245V27H48.4125V64.4672C48.4125 69.0992 49.2377 72.5728 50.869 74.9084C52.5002 77.2048 55.114 78.3432 58.6907 78.3432C63.5647 78.3432 67.0826 76.7142 69.2443 73.4757C71.4257 70.1784 72.5068 64.7419 72.5068 57.1857V27H89.9192V91.1397H76.5552Z" fill="#33CC33"/>
    <path d="M102 0H120V120H102V0Z" fill="#33CC33"/>
    <path d="M0 0H18V120H0V0Z" fill="#33CC33"/>
    <path d="M0 109H120V119.91H0V109Z" fill="#33CC33"/>
    <path d="M0 0H120V10.91H0V0Z" fill="#33CC33"/>
</svg>