<svg width="120" height="50" viewBox="0 0 120 50" fill="none" xmlns="http://www.w3.org/2000/svg">
<path d="M20.1198 32.5104L19.5 30.3333H19.2604C18.7656 31.125 18.0625 31.7396 17.1563 32.1771C16.25 32.599 15.2135 32.8125 14.0521 32.8125C12.0677 32.8125 10.5677 32.2813 9.5625 31.2136C8.55208 30.1406 8.04688 28.599 8.04688 26.5886V15.4896H12.6615V25.4323C12.6615 26.6615 12.8802 27.5833 13.3125 28.2031C13.7448 28.8125 14.4375 29.1146 15.3854 29.1146C16.6771 29.1146 17.6094 28.6823 18.1823 27.8229C18.7604 26.9479 19.0469 25.5052 19.0469 23.5V15.4896H23.6615V32.5104H20.1198Z" fill="#33CC33"/>
<path d="M27.0209 8H31.8021V40H27.0209V8Z" fill="#33CC33"/>
<path d="M0 8H4.78125V40H0V8Z" fill="#33CC33"/>
<path d="M0 37.0469H31.8021V40H0V37.0469Z" fill="#33CC33"/>
<path d="M0 8H31.8021V10.9531H0V8Z" fill="#33CC33"/>
<path d="M44.4479 32.8125C42.4583 32.8125 40.901 32.0885 39.7708 30.6354H39.5313C39.6927 32.0573 39.7708 32.8802 39.7708 33.1042V40H35.1562V15.4896H38.9115L39.5625 17.6979H39.7708C40.8542 16.0104 42.4531 15.1719 44.5677 15.1719C46.5677 15.1719 48.1302 15.9479 49.2604 17.5C50.3906 19.0521 50.9531 21.2083 50.9531 23.9687C50.9531 25.7865 50.6875 27.3646 50.151 28.7031C49.625 30.0417 48.875 31.0625 47.8958 31.7656C46.9167 32.4635 45.7708 32.8125 44.4479 32.8125ZM43.0885 18.8854C41.9479 18.8854 41.1146 19.2396 40.5885 19.9531C40.0677 20.651 39.7917 21.8125 39.7708 23.4375V23.9375C39.7708 25.7656 40.0417 27.0729 40.5729 27.8646C41.1198 28.6563 41.9792 29.0521 43.1458 29.0521C45.2135 29.0521 46.25 27.3385 46.25 23.9063C46.25 22.2344 45.9896 20.9792 45.474 20.1458C44.974 19.3073 44.1771 18.8854 43.0885 18.8854ZM69.9115 32.5104H65.2969V22.5677C65.2969 21.3385 65.0885 20.4219 64.6771 19.8125C64.2708 19.1927 63.6302 18.8854 62.7552 18.8854C61.5729 18.8854 60.7187 19.3229 60.1823 20.1927C59.6458 21.0677 59.3802 22.5052 59.3802 24.5V32.5104H54.7656V15.4896H58.2917L58.9115 17.6667H59.1667C59.6198 16.8854 60.276 16.276 61.1354 15.8385C61.9896 15.3958 62.974 15.1719 64.0833 15.1719C66.6146 15.1719 68.3281 16 69.2292 17.6667H69.6354C70.0885 16.875 70.7552 16.2604 71.6354 15.8229C72.5208 15.3906 73.5208 15.1719 74.6302 15.1719C76.5469 15.1719 77.9948 15.6667 78.9688 16.6615C79.9583 17.6458 80.4531 19.2292 80.4531 21.4115V32.5104H75.8229V22.5677C75.8229 21.3385 75.6198 20.4219 75.2031 19.8125C74.8021 19.1927 74.1615 18.8854 73.2813 18.8854C72.151 18.8854 71.3073 19.2917 70.7396 20.1042C70.1875 20.9167 69.9115 22.2031 69.9115 23.9687V32.5104ZM88.8802 23.9687C88.8802 25.6563 89.151 26.9271 89.6979 27.7917C90.25 28.651 91.151 29.0833 92.3906 29.0833C93.6198 29.0833 94.5052 28.6563 95.0365 27.8073C95.5833 26.9427 95.8542 25.6667 95.8542 23.9687C95.8542 22.2865 95.5833 21.0208 95.0365 20.1771C94.4948 19.3385 93.599 18.9167 92.3594 18.9167C91.1302 18.9167 90.2396 19.3385 89.6979 20.1771C89.151 21.0104 88.8802 22.276 88.8802 23.9687ZM100.573 23.9687C100.573 26.7396 99.849 28.9063 98.3958 30.4688C96.9427 32.0313 94.9219 32.8125 92.3281 32.8125C90.7083 32.8125 89.276 32.4583 88.0313 31.75C86.7917 31.026 85.8385 30 85.1719 28.6563C84.5104 27.3177 84.1771 25.7552 84.1771 23.9687C84.1771 21.1875 84.8958 19.026 86.3385 17.4844C87.7813 15.9427 89.8073 15.1719 92.4219 15.1719C94.0469 15.1719 95.474 15.526 96.7188 16.2344C97.9583 16.9479 98.9115 17.9688 99.5781 19.2969C100.24 20.625 100.573 22.1823 100.573 23.9687ZM120 32.5104H115.385V22.5677C115.385 21.3385 115.167 20.4219 114.734 19.8125C114.302 19.1927 113.609 18.8854 112.661 18.8854C111.37 18.8854 110.438 19.3229 109.865 20.1927C109.286 21.0573 109 22.4948 109 24.5V32.5104H104.385V15.4896H107.911L108.531 17.6667H108.792C109.302 16.8438 110.01 16.224 110.906 15.8073C111.818 15.3854 112.844 15.1719 113.995 15.1719C115.958 15.1719 117.453 15.7083 118.474 16.7865C119.49 17.849 120 19.3906 120 21.4115V32.5104Z" fill="#333333"/>
</svg>
